<?xml version="1.0" standalone="no"?>
<!DOCTYPE svg PUBLIC "-//W3C//DTD SVG 1.1//EN" "http://www.w3.org/Graphics/SVG/1.1/DTD/svg11.dtd" >
<svg xmlns="http://www.w3.org/2000/svg" xmlns:xlink="http://www.w3.org/1999/xlink" version="1.1">
<metadata>
Created by FontForge 20170731 at Tue Jun  6 06:09:15 2023
 By Aleksey,,,
Alternate r
</metadata>
<defs>
<font id="FONTSPRINGDEMO-RocGroteskExtraWideRegular" horiz-adv-x="1224" >
  <font-face 
    font-family="FSP DEMO - Rc Grtsk xtrWd"
    font-weight="400"
    font-stretch="extra-expanded"
    units-per-em="2048"
    panose-1="0 0 5 7 0 0 0 0 0 0"
    ascent="1556"
    descent="-492"
    x-height="1012"
    cap-height="1348"
    bbox="-528 -446 3809 1491"
    underline-thickness="102"
    underline-position="-266"
    unicode-range="U+000D-007E"
  />
<missing-glyph 
d="M207 403q-13 0 -19 -2v-200q4 -2 19 -2q37 0 50 25t13 77q0 54 -13 78t-50 24zM518 330v-49h-82v-78h96v-49h-155v297h155v-52h-96v-69h82zM203 150q-47 0 -74 4v292q61 9 76 9q67 0 96 -37.5t29 -116.5t-29.5 -115t-97.5 -36zM586 451h80l39 -164l38 164h82
q3 -45 13 -297h-60q0 108 -6 213l-41 -168h-55l-41 168h-2q-4 -140 -4 -213h-58q3 156 15 297zM987 150q-60 0 -84 35.5t-24 115.5q0 81 24 117.5t84 36.5t85.5 -37t25.5 -117q0 -79 -25.5 -115t-85.5 -36zM987 403q-29 0 -39 -23.5t-10 -78.5q0 -54 10 -78t39 -24
q30 0 40.5 24t10.5 78q0 55 -10 78.5t-41 23.5zM967 1016q49 0 79.5 -24.5t39 -51t8.5 -53.5q0 -43 -34.5 -72.5t-72.5 -34.5q-213 -23 -340 -147q3 8 9 22t25 53.5t39 75.5t50 80.5t59.5 76t66 53.5t71.5 22zM285 909q39 0 78 -21t69.5 -55t58.5 -74.5t48 -81.5t35 -75
t22 -55l8 -21q-117 148 -319 148q-49 0 -88 30t-39 76q0 53 33.5 91t93.5 38zM643 1214q38 -37 48.5 -102t-2.5 -131t-31.5 -126.5t-35.5 -98.5l-18 -39q20 191 -125 330q-35 35 -42 81.5t24 83.5q23 23 53 34t65 3.5t64 -35.5z" />
    <glyph glyph-name=".notdef" 
d="M207 403q-13 0 -19 -2v-200q4 -2 19 -2q37 0 50 25t13 77q0 54 -13 78t-50 24zM518 330v-49h-82v-78h96v-49h-155v297h155v-52h-96v-69h82zM203 150q-47 0 -74 4v292q61 9 76 9q67 0 96 -37.5t29 -116.5t-29.5 -115t-97.5 -36zM586 451h80l39 -164l38 164h82
q3 -45 13 -297h-60q0 108 -6 213l-41 -168h-55l-41 168h-2q-4 -140 -4 -213h-58q3 156 15 297zM987 150q-60 0 -84 35.5t-24 115.5q0 81 24 117.5t84 36.5t85.5 -37t25.5 -117q0 -79 -25.5 -115t-85.5 -36zM987 403q-29 0 -39 -23.5t-10 -78.5q0 -54 10 -78t39 -24
q30 0 40.5 24t10.5 78q0 55 -10 78.5t-41 23.5zM967 1016q49 0 79.5 -24.5t39 -51t8.5 -53.5q0 -43 -34.5 -72.5t-72.5 -34.5q-213 -23 -340 -147q3 8 9 22t25 53.5t39 75.5t50 80.5t59.5 76t66 53.5t71.5 22zM285 909q39 0 78 -21t69.5 -55t58.5 -74.5t48 -81.5t35 -75
t22 -55l8 -21q-117 148 -319 148q-49 0 -88 30t-39 76q0 53 33.5 91t93.5 38zM643 1214q38 -37 48.5 -102t-2.5 -131t-31.5 -126.5t-35.5 -98.5l-18 -39q20 191 -125 330q-35 35 -42 81.5t24 83.5q23 23 53 34t65 3.5t64 -35.5z" />
    <glyph glyph-name=".null" horiz-adv-x="0" 
 />
    <glyph glyph-name="nonmarkingreturn" horiz-adv-x="682" 
 />
    <glyph glyph-name="NULL" horiz-adv-x="0" 
 />
    <glyph glyph-name="NULL" horiz-adv-x="0" 
 />
    <glyph glyph-name="CR" unicode="&#xd;" horiz-adv-x="602" 
 />
    <glyph glyph-name="space" unicode=" " horiz-adv-x="921" 
 />
    <glyph glyph-name="exclam" unicode="!" 
d="M207 403q-13 0 -19 -2v-200q4 -2 19 -2q37 0 50 25t13 77q0 54 -13 78t-50 24zM518 330v-49h-82v-78h96v-49h-155v297h155v-52h-96v-69h82zM203 150q-47 0 -74 4v292q61 9 76 9q67 0 96 -37.5t29 -116.5t-29.5 -115t-97.5 -36zM586 451h80l39 -164l38 164h82
q3 -45 13 -297h-60q0 108 -6 213l-41 -168h-55l-41 168h-2q-4 -140 -4 -213h-58q3 156 15 297zM987 150q-60 0 -84 35.5t-24 115.5q0 81 24 117.5t84 36.5t85.5 -37t25.5 -117q0 -79 -25.5 -115t-85.5 -36zM987 403q-29 0 -39 -23.5t-10 -78.5q0 -54 10 -78t39 -24
q30 0 40.5 24t10.5 78q0 55 -10 78.5t-41 23.5zM967 1016q49 0 79.5 -24.5t39 -51t8.5 -53.5q0 -43 -34.5 -72.5t-72.5 -34.5q-213 -23 -340 -147q3 8 9 22t25 53.5t39 75.5t50 80.5t59.5 76t66 53.5t71.5 22zM285 909q39 0 78 -21t69.5 -55t58.5 -74.5t48 -81.5t35 -75
t22 -55l8 -21q-117 148 -319 148q-49 0 -88 30t-39 76q0 53 33.5 91t93.5 38zM643 1214q38 -37 48.5 -102t-2.5 -131t-31.5 -126.5t-35.5 -98.5l-18 -39q20 191 -125 330q-35 35 -42 81.5t24 83.5q23 23 53 34t65 3.5t64 -35.5z" />
    <glyph glyph-name="quotedbl" unicode="&#x22;" 
d="M207 403q-13 0 -19 -2v-200q4 -2 19 -2q37 0 50 25t13 77q0 54 -13 78t-50 24zM518 330v-49h-82v-78h96v-49h-155v297h155v-52h-96v-69h82zM203 150q-47 0 -74 4v292q61 9 76 9q67 0 96 -37.5t29 -116.5t-29.5 -115t-97.5 -36zM586 451h80l39 -164l38 164h82
q3 -45 13 -297h-60q0 108 -6 213l-41 -168h-55l-41 168h-2q-4 -140 -4 -213h-58q3 156 15 297zM987 150q-60 0 -84 35.5t-24 115.5q0 81 24 117.5t84 36.5t85.5 -37t25.5 -117q0 -79 -25.5 -115t-85.5 -36zM987 403q-29 0 -39 -23.5t-10 -78.5q0 -54 10 -78t39 -24
q30 0 40.5 24t10.5 78q0 55 -10 78.5t-41 23.5zM967 1016q49 0 79.5 -24.5t39 -51t8.5 -53.5q0 -43 -34.5 -72.5t-72.5 -34.5q-213 -23 -340 -147q3 8 9 22t25 53.5t39 75.5t50 80.5t59.5 76t66 53.5t71.5 22zM285 909q39 0 78 -21t69.5 -55t58.5 -74.5t48 -81.5t35 -75
t22 -55l8 -21q-117 148 -319 148q-49 0 -88 30t-39 76q0 53 33.5 91t93.5 38zM643 1214q38 -37 48.5 -102t-2.5 -131t-31.5 -126.5t-35.5 -98.5l-18 -39q20 191 -125 330q-35 35 -42 81.5t24 83.5q23 23 53 34t65 3.5t64 -35.5z" />
    <glyph glyph-name="numbersign" unicode="#" 
d="M207 403q-13 0 -19 -2v-200q4 -2 19 -2q37 0 50 25t13 77q0 54 -13 78t-50 24zM518 330v-49h-82v-78h96v-49h-155v297h155v-52h-96v-69h82zM203 150q-47 0 -74 4v292q61 9 76 9q67 0 96 -37.5t29 -116.5t-29.5 -115t-97.5 -36zM586 451h80l39 -164l38 164h82
q3 -45 13 -297h-60q0 108 -6 213l-41 -168h-55l-41 168h-2q-4 -140 -4 -213h-58q3 156 15 297zM987 150q-60 0 -84 35.5t-24 115.5q0 81 24 117.5t84 36.5t85.5 -37t25.5 -117q0 -79 -25.5 -115t-85.5 -36zM987 403q-29 0 -39 -23.5t-10 -78.5q0 -54 10 -78t39 -24
q30 0 40.5 24t10.5 78q0 55 -10 78.5t-41 23.5zM967 1016q49 0 79.5 -24.5t39 -51t8.5 -53.5q0 -43 -34.5 -72.5t-72.5 -34.5q-213 -23 -340 -147q3 8 9 22t25 53.5t39 75.5t50 80.5t59.5 76t66 53.5t71.5 22zM285 909q39 0 78 -21t69.5 -55t58.5 -74.5t48 -81.5t35 -75
t22 -55l8 -21q-117 148 -319 148q-49 0 -88 30t-39 76q0 53 33.5 91t93.5 38zM643 1214q38 -37 48.5 -102t-2.5 -131t-31.5 -126.5t-35.5 -98.5l-18 -39q20 191 -125 330q-35 35 -42 81.5t24 83.5q23 23 53 34t65 3.5t64 -35.5z" />
    <glyph glyph-name="dollar" unicode="$" 
d="M207 403q-13 0 -19 -2v-200q4 -2 19 -2q37 0 50 25t13 77q0 54 -13 78t-50 24zM518 330v-49h-82v-78h96v-49h-155v297h155v-52h-96v-69h82zM203 150q-47 0 -74 4v292q61 9 76 9q67 0 96 -37.5t29 -116.5t-29.5 -115t-97.5 -36zM586 451h80l39 -164l38 164h82
q3 -45 13 -297h-60q0 108 -6 213l-41 -168h-55l-41 168h-2q-4 -140 -4 -213h-58q3 156 15 297zM987 150q-60 0 -84 35.5t-24 115.5q0 81 24 117.5t84 36.5t85.5 -37t25.5 -117q0 -79 -25.5 -115t-85.5 -36zM987 403q-29 0 -39 -23.5t-10 -78.5q0 -54 10 -78t39 -24
q30 0 40.5 24t10.5 78q0 55 -10 78.5t-41 23.5zM967 1016q49 0 79.5 -24.5t39 -51t8.5 -53.5q0 -43 -34.5 -72.5t-72.5 -34.5q-213 -23 -340 -147q3 8 9 22t25 53.5t39 75.5t50 80.5t59.5 76t66 53.5t71.5 22zM285 909q39 0 78 -21t69.5 -55t58.5 -74.5t48 -81.5t35 -75
t22 -55l8 -21q-117 148 -319 148q-49 0 -88 30t-39 76q0 53 33.5 91t93.5 38zM643 1214q38 -37 48.5 -102t-2.5 -131t-31.5 -126.5t-35.5 -98.5l-18 -39q20 191 -125 330q-35 35 -42 81.5t24 83.5q23 23 53 34t65 3.5t64 -35.5z" />
    <glyph glyph-name="percent" unicode="%" 
d="M207 403q-13 0 -19 -2v-200q4 -2 19 -2q37 0 50 25t13 77q0 54 -13 78t-50 24zM518 330v-49h-82v-78h96v-49h-155v297h155v-52h-96v-69h82zM203 150q-47 0 -74 4v292q61 9 76 9q67 0 96 -37.5t29 -116.5t-29.5 -115t-97.5 -36zM586 451h80l39 -164l38 164h82
q3 -45 13 -297h-60q0 108 -6 213l-41 -168h-55l-41 168h-2q-4 -140 -4 -213h-58q3 156 15 297zM987 150q-60 0 -84 35.5t-24 115.5q0 81 24 117.5t84 36.5t85.5 -37t25.5 -117q0 -79 -25.5 -115t-85.5 -36zM987 403q-29 0 -39 -23.5t-10 -78.5q0 -54 10 -78t39 -24
q30 0 40.5 24t10.5 78q0 55 -10 78.5t-41 23.5zM967 1016q49 0 79.5 -24.5t39 -51t8.5 -53.5q0 -43 -34.5 -72.5t-72.5 -34.5q-213 -23 -340 -147q3 8 9 22t25 53.5t39 75.5t50 80.5t59.5 76t66 53.5t71.5 22zM285 909q39 0 78 -21t69.5 -55t58.5 -74.5t48 -81.5t35 -75
t22 -55l8 -21q-117 148 -319 148q-49 0 -88 30t-39 76q0 53 33.5 91t93.5 38zM643 1214q38 -37 48.5 -102t-2.5 -131t-31.5 -126.5t-35.5 -98.5l-18 -39q20 191 -125 330q-35 35 -42 81.5t24 83.5q23 23 53 34t65 3.5t64 -35.5z" />
    <glyph glyph-name="ampersand" unicode="&#x26;" 
d="M207 403q-13 0 -19 -2v-200q4 -2 19 -2q37 0 50 25t13 77q0 54 -13 78t-50 24zM518 330v-49h-82v-78h96v-49h-155v297h155v-52h-96v-69h82zM203 150q-47 0 -74 4v292q61 9 76 9q67 0 96 -37.5t29 -116.5t-29.5 -115t-97.5 -36zM586 451h80l39 -164l38 164h82
q3 -45 13 -297h-60q0 108 -6 213l-41 -168h-55l-41 168h-2q-4 -140 -4 -213h-58q3 156 15 297zM987 150q-60 0 -84 35.5t-24 115.5q0 81 24 117.5t84 36.5t85.5 -37t25.5 -117q0 -79 -25.5 -115t-85.5 -36zM987 403q-29 0 -39 -23.5t-10 -78.5q0 -54 10 -78t39 -24
q30 0 40.5 24t10.5 78q0 55 -10 78.5t-41 23.5zM967 1016q49 0 79.5 -24.5t39 -51t8.5 -53.5q0 -43 -34.5 -72.5t-72.5 -34.5q-213 -23 -340 -147q3 8 9 22t25 53.5t39 75.5t50 80.5t59.5 76t66 53.5t71.5 22zM285 909q39 0 78 -21t69.5 -55t58.5 -74.5t48 -81.5t35 -75
t22 -55l8 -21q-117 148 -319 148q-49 0 -88 30t-39 76q0 53 33.5 91t93.5 38zM643 1214q38 -37 48.5 -102t-2.5 -131t-31.5 -126.5t-35.5 -98.5l-18 -39q20 191 -125 330q-35 35 -42 81.5t24 83.5q23 23 53 34t65 3.5t64 -35.5z" />
    <glyph glyph-name="quotesingle" unicode="'" 
d="M207 403q-13 0 -19 -2v-200q4 -2 19 -2q37 0 50 25t13 77q0 54 -13 78t-50 24zM518 330v-49h-82v-78h96v-49h-155v297h155v-52h-96v-69h82zM203 150q-47 0 -74 4v292q61 9 76 9q67 0 96 -37.5t29 -116.5t-29.5 -115t-97.5 -36zM586 451h80l39 -164l38 164h82
q3 -45 13 -297h-60q0 108 -6 213l-41 -168h-55l-41 168h-2q-4 -140 -4 -213h-58q3 156 15 297zM987 150q-60 0 -84 35.5t-24 115.5q0 81 24 117.5t84 36.5t85.5 -37t25.5 -117q0 -79 -25.5 -115t-85.5 -36zM987 403q-29 0 -39 -23.5t-10 -78.5q0 -54 10 -78t39 -24
q30 0 40.5 24t10.5 78q0 55 -10 78.5t-41 23.5zM967 1016q49 0 79.5 -24.5t39 -51t8.5 -53.5q0 -43 -34.5 -72.5t-72.5 -34.5q-213 -23 -340 -147q3 8 9 22t25 53.5t39 75.5t50 80.5t59.5 76t66 53.5t71.5 22zM285 909q39 0 78 -21t69.5 -55t58.5 -74.5t48 -81.5t35 -75
t22 -55l8 -21q-117 148 -319 148q-49 0 -88 30t-39 76q0 53 33.5 91t93.5 38zM643 1214q38 -37 48.5 -102t-2.5 -131t-31.5 -126.5t-35.5 -98.5l-18 -39q20 191 -125 330q-35 35 -42 81.5t24 83.5q23 23 53 34t65 3.5t64 -35.5z" />
    <glyph glyph-name="parenleft" unicode="(" 
d="M207 403q-13 0 -19 -2v-200q4 -2 19 -2q37 0 50 25t13 77q0 54 -13 78t-50 24zM518 330v-49h-82v-78h96v-49h-155v297h155v-52h-96v-69h82zM203 150q-47 0 -74 4v292q61 9 76 9q67 0 96 -37.5t29 -116.5t-29.5 -115t-97.5 -36zM586 451h80l39 -164l38 164h82
q3 -45 13 -297h-60q0 108 -6 213l-41 -168h-55l-41 168h-2q-4 -140 -4 -213h-58q3 156 15 297zM987 150q-60 0 -84 35.5t-24 115.5q0 81 24 117.5t84 36.5t85.5 -37t25.5 -117q0 -79 -25.5 -115t-85.5 -36zM987 403q-29 0 -39 -23.5t-10 -78.5q0 -54 10 -78t39 -24
q30 0 40.5 24t10.5 78q0 55 -10 78.5t-41 23.5zM967 1016q49 0 79.5 -24.5t39 -51t8.5 -53.5q0 -43 -34.5 -72.5t-72.5 -34.5q-213 -23 -340 -147q3 8 9 22t25 53.5t39 75.5t50 80.5t59.5 76t66 53.5t71.5 22zM285 909q39 0 78 -21t69.5 -55t58.5 -74.5t48 -81.5t35 -75
t22 -55l8 -21q-117 148 -319 148q-49 0 -88 30t-39 76q0 53 33.5 91t93.5 38zM643 1214q38 -37 48.5 -102t-2.5 -131t-31.5 -126.5t-35.5 -98.5l-18 -39q20 191 -125 330q-35 35 -42 81.5t24 83.5q23 23 53 34t65 3.5t64 -35.5z" />
    <glyph glyph-name="parenright" unicode=")" 
d="M207 403q-13 0 -19 -2v-200q4 -2 19 -2q37 0 50 25t13 77q0 54 -13 78t-50 24zM518 330v-49h-82v-78h96v-49h-155v297h155v-52h-96v-69h82zM203 150q-47 0 -74 4v292q61 9 76 9q67 0 96 -37.5t29 -116.5t-29.5 -115t-97.5 -36zM586 451h80l39 -164l38 164h82
q3 -45 13 -297h-60q0 108 -6 213l-41 -168h-55l-41 168h-2q-4 -140 -4 -213h-58q3 156 15 297zM987 150q-60 0 -84 35.5t-24 115.5q0 81 24 117.5t84 36.5t85.5 -37t25.5 -117q0 -79 -25.5 -115t-85.5 -36zM987 403q-29 0 -39 -23.5t-10 -78.5q0 -54 10 -78t39 -24
q30 0 40.5 24t10.5 78q0 55 -10 78.5t-41 23.5zM967 1016q49 0 79.5 -24.5t39 -51t8.5 -53.5q0 -43 -34.5 -72.5t-72.5 -34.5q-213 -23 -340 -147q3 8 9 22t25 53.5t39 75.5t50 80.5t59.5 76t66 53.5t71.5 22zM285 909q39 0 78 -21t69.5 -55t58.5 -74.5t48 -81.5t35 -75
t22 -55l8 -21q-117 148 -319 148q-49 0 -88 30t-39 76q0 53 33.5 91t93.5 38zM643 1214q38 -37 48.5 -102t-2.5 -131t-31.5 -126.5t-35.5 -98.5l-18 -39q20 191 -125 330q-35 35 -42 81.5t24 83.5q23 23 53 34t65 3.5t64 -35.5z" />
    <glyph glyph-name="asterisk" unicode="*" 
d="M207 403q-13 0 -19 -2v-200q4 -2 19 -2q37 0 50 25t13 77q0 54 -13 78t-50 24zM518 330v-49h-82v-78h96v-49h-155v297h155v-52h-96v-69h82zM203 150q-47 0 -74 4v292q61 9 76 9q67 0 96 -37.5t29 -116.5t-29.5 -115t-97.5 -36zM586 451h80l39 -164l38 164h82
q3 -45 13 -297h-60q0 108 -6 213l-41 -168h-55l-41 168h-2q-4 -140 -4 -213h-58q3 156 15 297zM987 150q-60 0 -84 35.5t-24 115.5q0 81 24 117.5t84 36.5t85.5 -37t25.5 -117q0 -79 -25.5 -115t-85.5 -36zM987 403q-29 0 -39 -23.5t-10 -78.5q0 -54 10 -78t39 -24
q30 0 40.5 24t10.5 78q0 55 -10 78.5t-41 23.5zM967 1016q49 0 79.5 -24.5t39 -51t8.5 -53.5q0 -43 -34.5 -72.5t-72.5 -34.5q-213 -23 -340 -147q3 8 9 22t25 53.5t39 75.5t50 80.5t59.5 76t66 53.5t71.5 22zM285 909q39 0 78 -21t69.5 -55t58.5 -74.5t48 -81.5t35 -75
t22 -55l8 -21q-117 148 -319 148q-49 0 -88 30t-39 76q0 53 33.5 91t93.5 38zM643 1214q38 -37 48.5 -102t-2.5 -131t-31.5 -126.5t-35.5 -98.5l-18 -39q20 191 -125 330q-35 35 -42 81.5t24 83.5q23 23 53 34t65 3.5t64 -35.5z" />
    <glyph glyph-name="plus" unicode="+" 
d="M207 403q-13 0 -19 -2v-200q4 -2 19 -2q37 0 50 25t13 77q0 54 -13 78t-50 24zM518 330v-49h-82v-78h96v-49h-155v297h155v-52h-96v-69h82zM203 150q-47 0 -74 4v292q61 9 76 9q67 0 96 -37.5t29 -116.5t-29.5 -115t-97.5 -36zM586 451h80l39 -164l38 164h82
q3 -45 13 -297h-60q0 108 -6 213l-41 -168h-55l-41 168h-2q-4 -140 -4 -213h-58q3 156 15 297zM987 150q-60 0 -84 35.5t-24 115.5q0 81 24 117.5t84 36.5t85.5 -37t25.5 -117q0 -79 -25.5 -115t-85.5 -36zM987 403q-29 0 -39 -23.5t-10 -78.5q0 -54 10 -78t39 -24
q30 0 40.5 24t10.5 78q0 55 -10 78.5t-41 23.5zM967 1016q49 0 79.5 -24.5t39 -51t8.5 -53.5q0 -43 -34.5 -72.5t-72.5 -34.5q-213 -23 -340 -147q3 8 9 22t25 53.5t39 75.5t50 80.5t59.5 76t66 53.5t71.5 22zM285 909q39 0 78 -21t69.5 -55t58.5 -74.5t48 -81.5t35 -75
t22 -55l8 -21q-117 148 -319 148q-49 0 -88 30t-39 76q0 53 33.5 91t93.5 38zM643 1214q38 -37 48.5 -102t-2.5 -131t-31.5 -126.5t-35.5 -98.5l-18 -39q20 191 -125 330q-35 35 -42 81.5t24 83.5q23 23 53 34t65 3.5t64 -35.5z" />
    <glyph glyph-name="comma" unicode="," horiz-adv-x="878" 
d="M211 -293v119q101 6 147 47.5t52 122.5v4h-97v256h234v-211q0 -315 -336 -338z" />
    <glyph glyph-name="hyphen" unicode="-" 
d="M207 403q-13 0 -19 -2v-200q4 -2 19 -2q37 0 50 25t13 77q0 54 -13 78t-50 24zM518 330v-49h-82v-78h96v-49h-155v297h155v-52h-96v-69h82zM203 150q-47 0 -74 4v292q61 9 76 9q67 0 96 -37.5t29 -116.5t-29.5 -115t-97.5 -36zM586 451h80l39 -164l38 164h82
q3 -45 13 -297h-60q0 108 -6 213l-41 -168h-55l-41 168h-2q-4 -140 -4 -213h-58q3 156 15 297zM987 150q-60 0 -84 35.5t-24 115.5q0 81 24 117.5t84 36.5t85.5 -37t25.5 -117q0 -79 -25.5 -115t-85.5 -36zM987 403q-29 0 -39 -23.5t-10 -78.5q0 -54 10 -78t39 -24
q30 0 40.5 24t10.5 78q0 55 -10 78.5t-41 23.5zM967 1016q49 0 79.5 -24.5t39 -51t8.5 -53.5q0 -43 -34.5 -72.5t-72.5 -34.5q-213 -23 -340 -147q3 8 9 22t25 53.5t39 75.5t50 80.5t59.5 76t66 53.5t71.5 22zM285 909q39 0 78 -21t69.5 -55t58.5 -74.5t48 -81.5t35 -75
t22 -55l8 -21q-117 148 -319 148q-49 0 -88 30t-39 76q0 53 33.5 91t93.5 38zM643 1214q38 -37 48.5 -102t-2.5 -131t-31.5 -126.5t-35.5 -98.5l-18 -39q20 191 -125 330q-35 35 -42 81.5t24 83.5q23 23 53 34t65 3.5t64 -35.5z" />
    <glyph glyph-name="period" unicode="." horiz-adv-x="880" 
d="M324 0v256h233v-256h-233z" />
    <glyph glyph-name="slash" unicode="/" 
d="M207 403q-13 0 -19 -2v-200q4 -2 19 -2q37 0 50 25t13 77q0 54 -13 78t-50 24zM518 330v-49h-82v-78h96v-49h-155v297h155v-52h-96v-69h82zM203 150q-47 0 -74 4v292q61 9 76 9q67 0 96 -37.5t29 -116.5t-29.5 -115t-97.5 -36zM586 451h80l39 -164l38 164h82
q3 -45 13 -297h-60q0 108 -6 213l-41 -168h-55l-41 168h-2q-4 -140 -4 -213h-58q3 156 15 297zM987 150q-60 0 -84 35.5t-24 115.5q0 81 24 117.5t84 36.5t85.5 -37t25.5 -117q0 -79 -25.5 -115t-85.5 -36zM987 403q-29 0 -39 -23.5t-10 -78.5q0 -54 10 -78t39 -24
q30 0 40.5 24t10.5 78q0 55 -10 78.5t-41 23.5zM967 1016q49 0 79.5 -24.5t39 -51t8.5 -53.5q0 -43 -34.5 -72.5t-72.5 -34.5q-213 -23 -340 -147q3 8 9 22t25 53.5t39 75.5t50 80.5t59.5 76t66 53.5t71.5 22zM285 909q39 0 78 -21t69.5 -55t58.5 -74.5t48 -81.5t35 -75
t22 -55l8 -21q-117 148 -319 148q-49 0 -88 30t-39 76q0 53 33.5 91t93.5 38zM643 1214q38 -37 48.5 -102t-2.5 -131t-31.5 -126.5t-35.5 -98.5l-18 -39q20 191 -125 330q-35 35 -42 81.5t24 83.5q23 23 53 34t65 3.5t64 -35.5z" />
    <glyph glyph-name="zero" unicode="0" horiz-adv-x="2265" 
d="M1133 -20q-470 0 -736 187t-266 513q0 211 120.5 366.5t347 238.5t534.5 83t534 -83t346.5 -238t120.5 -367q0 -327 -265.5 -513.5t-735.5 -186.5zM1133 168q367 0 571.5 135t204.5 377q0 235 -206 367.5t-570 132.5t-570.5 -132.5t-206.5 -367.5q0 -242 205 -377
t572 -135z" />
    <glyph glyph-name="one" unicode="1" horiz-adv-x="2265" 
d="M229 0v188h873v658h-561v153l381 9q54 1 85 5t59 18.5t40.5 34.5t22.5 63t13 93.5t5 135.5h180v-1170h725v-188h-1823z" />
    <glyph glyph-name="two" unicode="2" horiz-adv-x="2265" 
d="M193 0q0 74 2.5 117.5t15.5 95t34.5 80.5t64.5 64t101 56.5t148 48t201 48t266 47.5q150 25 263.5 49t193.5 45.5t134 46.5t85.5 46t48 50t21 53t4.5 60q0 55 -35.5 103t-108.5 88t-200 63t-295 23q-352 0 -533.5 -89.5t-181.5 -246.5q0 -72 24 -127h-210q-23 58 -23 147
q0 102 56.5 191.5t166.5 160t290.5 111.5t410.5 41q186 0 335.5 -27.5t245.5 -73t160.5 -106.5t91.5 -124t27 -130q0 -50 -7 -88t-29 -81.5t-60.5 -77.5t-103 -71t-154.5 -67.5t-218 -61.5t-290 -58q-134 -22 -230.5 -39t-173.5 -33t-126 -27t-84.5 -24t-53 -21.5
t-27.5 -22.5t-12 -23.5t-2 -27.5h1624v-188h-1857z" />
    <glyph glyph-name="three" unicode="3" horiz-adv-x="2265" 
d="M1102 -25q-159 0 -293.5 14.5t-232.5 39t-175 59t-126.5 74t-82 85t-46 89.5t-13.5 90q0 56 10 86h205q-6 -27 -6 -59q0 -61 37.5 -110.5t121.5 -91t238 -64.5t367 -23q173 0 309.5 14t227.5 39t151.5 60t86.5 75t26 86q0 55 -43 92t-152 58.5t-287 21.5h-471v164h383
q243 0 353 44t110 138q0 107 -171.5 167.5t-498.5 60.5q-729 0 -729 -287q0 -19 9 -55h-203q-14 33 -14 82q0 66 27.5 127t96.5 120.5t173 103t269.5 70.5t373.5 27q419 0 647.5 -107t228.5 -274q0 -47 -14 -85.5t-46.5 -75t-96 -62t-154.5 -37.5v-6q226 -17 330 -92.5
t104 -206.5q0 -77 -36.5 -143.5t-116 -124t-198.5 -97.5t-292 -63t-387 -23z" />
    <glyph glyph-name="four" unicode="4" 
d="M207 403q-13 0 -19 -2v-200q4 -2 19 -2q37 0 50 25t13 77q0 54 -13 78t-50 24zM518 330v-49h-82v-78h96v-49h-155v297h155v-52h-96v-69h82zM203 150q-47 0 -74 4v292q61 9 76 9q67 0 96 -37.5t29 -116.5t-29.5 -115t-97.5 -36zM586 451h80l39 -164l38 164h82
q3 -45 13 -297h-60q0 108 -6 213l-41 -168h-55l-41 168h-2q-4 -140 -4 -213h-58q3 156 15 297zM987 150q-60 0 -84 35.5t-24 115.5q0 81 24 117.5t84 36.5t85.5 -37t25.5 -117q0 -79 -25.5 -115t-85.5 -36zM987 403q-29 0 -39 -23.5t-10 -78.5q0 -54 10 -78t39 -24
q30 0 40.5 24t10.5 78q0 55 -10 78.5t-41 23.5zM967 1016q49 0 79.5 -24.5t39 -51t8.5 -53.5q0 -43 -34.5 -72.5t-72.5 -34.5q-213 -23 -340 -147q3 8 9 22t25 53.5t39 75.5t50 80.5t59.5 76t66 53.5t71.5 22zM285 909q39 0 78 -21t69.5 -55t58.5 -74.5t48 -81.5t35 -75
t22 -55l8 -21q-117 148 -319 148q-49 0 -88 30t-39 76q0 53 33.5 91t93.5 38zM643 1214q38 -37 48.5 -102t-2.5 -131t-31.5 -126.5t-35.5 -98.5l-18 -39q20 191 -125 330q-35 35 -42 81.5t24 83.5q23 23 53 34t65 3.5t64 -35.5z" />
    <glyph glyph-name="five" unicode="5" horiz-adv-x="2265" 
d="M1188 -27q-197 0 -357 17t-266.5 47.5t-183.5 68.5t-118.5 84t-60 88.5t-18.5 88.5q0 16 2 30h211v-16q0 -44 38.5 -81t124 -69t246 -50.5t382.5 -18.5q188 0 325 22.5t215.5 63.5t115 92.5t36.5 114.5q0 129 -162.5 194.5t-521.5 65.5q-173 0 -310 -15.5t-221 -41
t-132 -49.5t-78 -50l-219 23l94 766h1603v-189h-1419l-68 -479h5q148 199 772 199q192 0 343 -22t251 -60t165.5 -92.5t94 -116t28.5 -133.5q0 -79 -29.5 -148t-98 -131t-172 -106.5t-261.5 -70.5t-356 -26z" />
    <glyph glyph-name="six" unicode="6" horiz-adv-x="2265" 
d="M1163 -25q-183 0 -332.5 20t-255.5 54.5t-186.5 86t-129.5 108.5t-79.5 128.5t-41.5 139.5t-11 147q0 124 40.5 232t125 197t206 152.5t291.5 98.5t375 35q187 0 338 -23.5t252 -64t169 -96.5t98 -118.5t30 -133.5q0 -23 -4 -47h-207q2 14 2 31q0 264 -676 264
q-406 0 -610.5 -139.5t-204.5 -387.5q0 -72 10 -127h3q40 140 255 203.5t613 63.5q211 0 371.5 -20.5t260 -55t162 -85t86 -103.5t23.5 -117q0 -71 -28 -132.5t-97.5 -119.5t-177.5 -99.5t-279.5 -66.5t-390.5 -25zM1163 164q210 0 360.5 20t232.5 56.5t118.5 80t36.5 97.5
q0 50 -30.5 87t-107 68t-221.5 46.5t-358 15.5q-174 0 -312.5 -14.5t-225 -38.5t-144.5 -55.5t-81 -63t-23 -64.5q2 -11 6.5 -22.5t24 -36.5t48.5 -46t87 -46t133.5 -42.5t194 -29.5t261.5 -12z" />
    <glyph glyph-name="seven" unicode="7" horiz-adv-x="2265" 
d="M561 0q215 387 526.5 669t739.5 488v2h-1675v189h1966v-174q-239 -116 -439.5 -251.5t-356.5 -285t-275 -306t-213 -331.5h-273z" />
    <glyph glyph-name="eight" unicode="8" horiz-adv-x="2265" 
d="M1133 -20q-211 0 -381.5 22t-284.5 59t-191 88.5t-111 109.5t-34 122q0 46 14.5 86.5t53 80.5t99 69.5t158.5 51.5t226 29v4q-121 14 -206 40.5t-132.5 65.5t-68.5 84t-21 101q0 50 28 100.5t94.5 100.5t164 88t251 62t341.5 24t341 -24t251 -62t164.5 -88t94 -100.5
t27.5 -100.5q0 -57 -21 -102t-69.5 -83.5t-133 -65t-204.5 -40.5v-2q128 -7 226 -29t158.5 -52t99 -70.5t53 -81t14.5 -86.5q0 -65 -34 -122.5t-111 -109t-191 -88.5t-284 -59t-381 -22zM1133 768q348 0 508.5 55t160.5 152q0 90 -163 149.5t-506 59.5t-506.5 -59.5
t-163.5 -149.5q0 -207 670 -207zM1133 164q395 0 585.5 61t190.5 168q0 215 -776 215q-777 0 -777 -215q0 -107 190.5 -168t586.5 -61z" />
    <glyph glyph-name="nine" unicode="9" horiz-adv-x="2265" 
d="M1098 -27q-199 0 -356.5 22.5t-258.5 60t-167 90t-93.5 109.5t-27.5 122q0 22 2 45h206v-25q0 -235 695 -235q813 0 813 526q0 66 -13 123h-6q-56 -303 -868 -303q-208 0 -369 23.5t-258 61.5t-158.5 91t-84.5 106t-23 113q0 57 20 111t62.5 108t118 98.5t178.5 79.5
t252.5 54.5t331.5 19.5q179 0 327.5 -20.5t254.5 -55.5t188 -87t132.5 -110t82.5 -128.5t44.5 -139t12.5 -145.5q0 -132 -38 -241.5t-119.5 -198t-202.5 -149.5t-292.5 -93.5t-385.5 -32.5zM1061 672q386 0 586 76.5t200 205.5q-2 6 -8 17.5t-28 34.5t-54 45.5t-91.5 47.5
t-134 43.5t-188 31t-247.5 12.5q-172 0 -304.5 -16.5t-213 -43t-132 -64t-71 -75t-19.5 -80.5q0 -32 12 -59.5t40 -55t80.5 -48.5t128 -37.5t188.5 -25.5t256 -9z" />
    <glyph glyph-name="colon" unicode=":" horiz-adv-x="880" 
d="M324 696v256h233v-256h-233zM324 0v256h233v-256h-233z" />
    <glyph glyph-name="semicolon" unicode=";" horiz-adv-x="880" 
d="M324 696v256h233v-256h-233zM221 -293v119q101 6 147 47.5t52 122.5v4h-96v256h233v-211q0 -315 -336 -338z" />
    <glyph glyph-name="less" unicode="&#x3c;" 
d="M207 403q-13 0 -19 -2v-200q4 -2 19 -2q37 0 50 25t13 77q0 54 -13 78t-50 24zM518 330v-49h-82v-78h96v-49h-155v297h155v-52h-96v-69h82zM203 150q-47 0 -74 4v292q61 9 76 9q67 0 96 -37.5t29 -116.5t-29.5 -115t-97.5 -36zM586 451h80l39 -164l38 164h82
q3 -45 13 -297h-60q0 108 -6 213l-41 -168h-55l-41 168h-2q-4 -140 -4 -213h-58q3 156 15 297zM987 150q-60 0 -84 35.5t-24 115.5q0 81 24 117.5t84 36.5t85.5 -37t25.5 -117q0 -79 -25.5 -115t-85.5 -36zM987 403q-29 0 -39 -23.5t-10 -78.5q0 -54 10 -78t39 -24
q30 0 40.5 24t10.5 78q0 55 -10 78.5t-41 23.5zM967 1016q49 0 79.5 -24.5t39 -51t8.5 -53.5q0 -43 -34.5 -72.5t-72.5 -34.5q-213 -23 -340 -147q3 8 9 22t25 53.5t39 75.5t50 80.5t59.5 76t66 53.5t71.5 22zM285 909q39 0 78 -21t69.5 -55t58.5 -74.5t48 -81.5t35 -75
t22 -55l8 -21q-117 148 -319 148q-49 0 -88 30t-39 76q0 53 33.5 91t93.5 38zM643 1214q38 -37 48.5 -102t-2.5 -131t-31.5 -126.5t-35.5 -98.5l-18 -39q20 191 -125 330q-35 35 -42 81.5t24 83.5q23 23 53 34t65 3.5t64 -35.5z" />
    <glyph glyph-name="equal" unicode="=" 
d="M207 403q-13 0 -19 -2v-200q4 -2 19 -2q37 0 50 25t13 77q0 54 -13 78t-50 24zM518 330v-49h-82v-78h96v-49h-155v297h155v-52h-96v-69h82zM203 150q-47 0 -74 4v292q61 9 76 9q67 0 96 -37.5t29 -116.5t-29.5 -115t-97.5 -36zM586 451h80l39 -164l38 164h82
q3 -45 13 -297h-60q0 108 -6 213l-41 -168h-55l-41 168h-2q-4 -140 -4 -213h-58q3 156 15 297zM987 150q-60 0 -84 35.5t-24 115.5q0 81 24 117.5t84 36.5t85.5 -37t25.5 -117q0 -79 -25.5 -115t-85.5 -36zM987 403q-29 0 -39 -23.5t-10 -78.5q0 -54 10 -78t39 -24
q30 0 40.5 24t10.5 78q0 55 -10 78.5t-41 23.5zM967 1016q49 0 79.5 -24.5t39 -51t8.5 -53.5q0 -43 -34.5 -72.5t-72.5 -34.5q-213 -23 -340 -147q3 8 9 22t25 53.5t39 75.5t50 80.5t59.5 76t66 53.5t71.5 22zM285 909q39 0 78 -21t69.5 -55t58.5 -74.5t48 -81.5t35 -75
t22 -55l8 -21q-117 148 -319 148q-49 0 -88 30t-39 76q0 53 33.5 91t93.5 38zM643 1214q38 -37 48.5 -102t-2.5 -131t-31.5 -126.5t-35.5 -98.5l-18 -39q20 191 -125 330q-35 35 -42 81.5t24 83.5q23 23 53 34t65 3.5t64 -35.5z" />
    <glyph glyph-name="greater" unicode="&#x3e;" 
d="M207 403q-13 0 -19 -2v-200q4 -2 19 -2q37 0 50 25t13 77q0 54 -13 78t-50 24zM518 330v-49h-82v-78h96v-49h-155v297h155v-52h-96v-69h82zM203 150q-47 0 -74 4v292q61 9 76 9q67 0 96 -37.5t29 -116.5t-29.5 -115t-97.5 -36zM586 451h80l39 -164l38 164h82
q3 -45 13 -297h-60q0 108 -6 213l-41 -168h-55l-41 168h-2q-4 -140 -4 -213h-58q3 156 15 297zM987 150q-60 0 -84 35.5t-24 115.5q0 81 24 117.5t84 36.5t85.5 -37t25.5 -117q0 -79 -25.5 -115t-85.5 -36zM987 403q-29 0 -39 -23.5t-10 -78.5q0 -54 10 -78t39 -24
q30 0 40.5 24t10.5 78q0 55 -10 78.5t-41 23.5zM967 1016q49 0 79.5 -24.5t39 -51t8.5 -53.5q0 -43 -34.5 -72.5t-72.5 -34.5q-213 -23 -340 -147q3 8 9 22t25 53.5t39 75.5t50 80.5t59.5 76t66 53.5t71.5 22zM285 909q39 0 78 -21t69.5 -55t58.5 -74.5t48 -81.5t35 -75
t22 -55l8 -21q-117 148 -319 148q-49 0 -88 30t-39 76q0 53 33.5 91t93.5 38zM643 1214q38 -37 48.5 -102t-2.5 -131t-31.5 -126.5t-35.5 -98.5l-18 -39q20 191 -125 330q-35 35 -42 81.5t24 83.5q23 23 53 34t65 3.5t64 -35.5z" />
    <glyph glyph-name="question" unicode="?" horiz-adv-x="1585" 
d="M248 375v336h168q94 -162 430 -162q212 0 344.5 85.5t132.5 246.5q0 145 -132.5 238t-381.5 93q-243 0 -360 -68.5t-117 -170.5q0 -17 2 -31h-182q-5 25 -5 55q0 76 39.5 142.5t117.5 120.5t208 85t297 31q172 0 307 -37.5t219.5 -104.5t128 -155.5t43.5 -193.5
q0 -223 -177.5 -359.5t-455.5 -136.5q-182 0 -298.5 45.5t-159.5 130.5h-4v-190h-164zM215 0v256h234v-256h-234z" />
    <glyph glyph-name="at" unicode="@" 
d="M207 403q-13 0 -19 -2v-200q4 -2 19 -2q37 0 50 25t13 77q0 54 -13 78t-50 24zM518 330v-49h-82v-78h96v-49h-155v297h155v-52h-96v-69h82zM203 150q-47 0 -74 4v292q61 9 76 9q67 0 96 -37.5t29 -116.5t-29.5 -115t-97.5 -36zM586 451h80l39 -164l38 164h82
q3 -45 13 -297h-60q0 108 -6 213l-41 -168h-55l-41 168h-2q-4 -140 -4 -213h-58q3 156 15 297zM987 150q-60 0 -84 35.5t-24 115.5q0 81 24 117.5t84 36.5t85.5 -37t25.5 -117q0 -79 -25.5 -115t-85.5 -36zM987 403q-29 0 -39 -23.5t-10 -78.5q0 -54 10 -78t39 -24
q30 0 40.5 24t10.5 78q0 55 -10 78.5t-41 23.5zM967 1016q49 0 79.5 -24.5t39 -51t8.5 -53.5q0 -43 -34.5 -72.5t-72.5 -34.5q-213 -23 -340 -147q3 8 9 22t25 53.5t39 75.5t50 80.5t59.5 76t66 53.5t71.5 22zM285 909q39 0 78 -21t69.5 -55t58.5 -74.5t48 -81.5t35 -75
t22 -55l8 -21q-117 148 -319 148q-49 0 -88 30t-39 76q0 53 33.5 91t93.5 38zM643 1214q38 -37 48.5 -102t-2.5 -131t-31.5 -126.5t-35.5 -98.5l-18 -39q20 191 -125 330q-35 35 -42 81.5t24 83.5q23 23 53 34t65 3.5t64 -35.5z" />
    <glyph glyph-name="A" unicode="A" horiz-adv-x="2768" 
d="M2380 0l-271 319h-1468l-272 -319h-283l1174 1348h249l1174 -1348h-303zM778 481h1192l-592 699h-4z" />
    <glyph glyph-name="B" unicode="B" horiz-adv-x="2322" 
d="M197 0v1348h1171q202 0 346.5 -25.5t226.5 -73.5t119 -110t37 -142q0 -109 -80.5 -187t-238.5 -103v-2q207 -17 313.5 -101.5t106.5 -206.5q0 -92 -39.5 -163t-122.5 -124.5t-221 -81.5t-326 -28h-1292zM422 772h1061q204 0 304.5 52t100.5 145q0 101 -122.5 147.5
t-397.5 46.5h-946v-391zM422 184h1024q526 0 526 224q0 200 -467 200h-1083v-424z" />
    <glyph glyph-name="C" unicode="C" horiz-adv-x="2465" 
d="M1282 -27q-179 0 -332 21t-268.5 58t-208 89t-154 112.5t-103 130.5t-59.5 140.5t-18 145.5q0 115 45 219.5t138 193t225 153.5t316.5 101.5t402.5 36.5q164 0 306 -18.5t247 -49.5t190.5 -73.5t141.5 -90t94 -99.5t54.5 -101t16.5 -96q0 -15 -2 -27h-207v8q0 47 -26 95
t-89 96t-155.5 85t-238 60t-324.5 23q-437 0 -673 -142t-236 -374q0 -80 30 -152t99.5 -138t173.5 -113.5t261.5 -76t354.5 -28.5q211 0 375.5 29.5t264 79.5t150 112t50.5 131v12h207q2 -12 2 -26q0 -74 -37 -147t-120 -142t-202 -121.5t-298 -84.5t-394 -32z" />
    <glyph glyph-name="D" unicode="D" horiz-adv-x="2373" 
d="M197 0v1348h907q181 0 334 -19t267.5 -52.5t205 -82t150.5 -105.5t99.5 -125.5t56.5 -139.5t17 -150q0 -162 -58.5 -284.5t-183 -211t-328.5 -133.5t-486 -45h-981zM422 188h749q163 0 290.5 15.5t232 50.5t173 91t105.5 138.5t37 190.5q0 485 -903 485h-684v-971z" />
    <glyph glyph-name="E" unicode="E" horiz-adv-x="2086" 
d="M197 0v1348h1734v-189h-1509v-399h1223v-164h-1223v-408h1538v-188h-1763z" />
    <glyph glyph-name="F" unicode="F" horiz-adv-x="1998" 
d="M197 0v1348h1706v-189h-1481v-442h1280v-168h-1280v-549h-225z" />
    <glyph glyph-name="G" unicode="G" horiz-adv-x="2480" 
d="M1260 -27q-234 0 -425 38t-318.5 103t-214 153t-125 185.5t-38.5 204.5q0 115 43 219.5t134 195.5t223 158t321 105.5t416 38.5q221 0 398 -30t290.5 -79.5t189.5 -117t108 -138t32 -147.5q0 -27 -2 -47h-209q2 18 2 37q0 51 -25.5 97.5t-85.5 90t-150.5 75.5
t-230.5 51.5t-315 19.5q-184 0 -336 -27.5t-257.5 -76.5t-178.5 -116t-107 -145.5t-34 -165.5q0 -81 32 -153t102 -134.5t174 -108t256.5 -71.5t340.5 -26q162 0 300.5 21.5t232.5 56t161 78.5t98 89t31 87v8h-922v160h1147v-662h-202q12 183 16 295h-4
q-69 -165 -300 -243.5t-568 -78.5z" />
    <glyph glyph-name="H" unicode="H" horiz-adv-x="2605" 
d="M197 0v1348h225v-560h1761v560h225v-1348h-225v612h-1761v-612h-225z" />
    <glyph glyph-name="I" unicode="I" horiz-adv-x="675" 
d="M225 0v1348h226v-1348h-226z" />
    <glyph glyph-name="J" unicode="J" horiz-adv-x="2193" 
d="M1071 -25q-438 0 -668.5 153.5t-230.5 446.5q0 76 8 130h209q-8 -72 -8 -123q0 -418 690 -418q713 0 713 477v707h225v-684q0 -176 -67 -309t-192 -215.5t-295 -123.5t-384 -41z" />
    <glyph glyph-name="K" unicode="K" horiz-adv-x="2691" 
d="M197 0v1348h225v-826h2l1659 826h450l-1292 -639l1358 -709h-485l-1094 598l-598 -295v-303h-225z" />
    <glyph glyph-name="L" unicode="L" horiz-adv-x="1898" 
d="M197 0v1348h225v-1160h1376v-188h-1601z" />
    <glyph glyph-name="M" unicode="M" horiz-adv-x="2863" 
d="M197 0v1348h374l863 -1115h4l862 1115h366v-1348h-225v1190h-2l-923 -1190h-177l-921 1190h-4v-1190h-217z" />
    <glyph glyph-name="N" unicode="N" horiz-adv-x="2580" 
d="M197 0v1348h327l1639 -1084h4v1084h217v-1348h-217l-1751 1159h-2v-1159h-217z" />
    <glyph glyph-name="O" unicode="O" horiz-adv-x="2674" 
d="M1337 -27q-565 0 -881.5 187t-316.5 520q0 319 321 506.5t877 187.5t877 -187.5t321 -506.5q0 -333 -316.5 -520t-881.5 -187zM1337 162q459 0 716 137t257 381q0 230 -261.5 368t-711.5 138t-711 -138t-261 -368q0 -245 256.5 -381.5t715.5 -136.5z" />
    <glyph glyph-name="P" unicode="P" horiz-adv-x="2269" 
d="M197 0v1348h1126q411 0 619 -119t208 -348q0 -216 -194 -332.5t-580 -116.5h-954v-432h-225zM422 600h930q297 0 439 68.5t142 212.5q0 77 -41 131.5t-122.5 86t-191 46t-257.5 14.5h-899v-559z" />
    <glyph glyph-name="Q" unicode="Q" horiz-adv-x="2674" 
d="M1337 -27q-565 0 -881.5 187t-316.5 520q0 322 319.5 508t878.5 186q369 0 641 -84t414.5 -236.5t142.5 -355.5q0 -210 -131.5 -351t-404.5 -195v-5q12 0 528 15v-189h-1190zM1337 162q459 0 716 137t257 381q0 229 -261.5 367.5t-711.5 138.5q-452 0 -712 -137
t-260 -369q0 -245 256.5 -381.5t715.5 -136.5z" />
    <glyph glyph-name="R" unicode="R" horiz-adv-x="2400" 
d="M197 0v1348h1228q218 0 374 -27t247 -78.5t132.5 -120.5t41.5 -161q0 -285 -365 -322v-4q89 -8 154 -31.5t103.5 -56t61.5 -78t30.5 -90t7.5 -100.5v-279h-225v279q0 66 -17 110.5t-61.5 80t-128.5 52.5t-211 17h-1147v-539h-225zM422 702h1134q222 0 334.5 61.5
t112.5 170.5q0 53 -29 93t-94.5 70.5t-179 46t-275.5 15.5h-1003v-457z" />
    <glyph glyph-name="S" unicode="S" horiz-adv-x="2412" 
d="M1190 -27q-191 0 -347.5 17.5t-262 46.5t-185 70t-124 82.5t-71.5 91.5t-35.5 89.5t-8.5 82.5h213q0 -46 16 -83.5t67.5 -78t138 -67.5t239.5 -44.5t360 -17.5q175 0 311.5 8.5t228.5 25t155 37.5t97 49.5t48 57t14 63.5q0 58 -44.5 94t-146.5 54q-47 8 -110.5 14.5
t-160.5 10.5l-145.5 6t-175 5t-139.5 3q-587 16 -757 69q-109 34 -165.5 107t-56.5 168q0 199 264.5 319.5t768.5 120.5q174 0 316.5 -13.5t245 -36.5t180.5 -57.5t126.5 -73.5t79 -87.5t42 -96t11.5 -102.5h-209q0 67 -36.5 116t-123.5 87t-244.5 57t-387.5 19
q-401 0 -604 -62t-203 -172q0 -58 37.5 -93.5t123.5 -53.5q38 -8 99 -14.5t151.5 -11t156 -7.5t185 -6.5t166.5 -5.5q564 -17 740 -64q119 -32 180 -104t61 -174q0 -445 -1079 -445z" />
    <glyph glyph-name="T" unicode="T" horiz-adv-x="2166" 
d="M971 0v1159h-889v189h2003v-189h-889v-1159h-225z" />
    <glyph glyph-name="U" unicode="U" horiz-adv-x="2490" 
d="M1247 -27q-335 0 -570.5 72t-364 222.5t-128.5 371.5v709h226v-709q0 -477 841 -477q846 0 846 477v709h209v-709q0 -332 -274 -499t-785 -167z" />
    <glyph glyph-name="V" unicode="V" horiz-adv-x="2715" 
d="M1239 0l-1178 1348h301l1004 -1155h4l1004 1155h280l-1177 -1348h-238z" />
    <glyph glyph-name="W" unicode="W" horiz-adv-x="3870" 
d="M995 0l-934 1348h275l774 -1125h4l721 1102h217l723 -1102h4l772 1125h258l-934 -1348h-219l-719 1092h-4l-719 -1092h-219z" />
    <glyph glyph-name="X" unicode="X" horiz-adv-x="2500" 
d="M66 0l1003 682l-977 666h367l805 -549l776 549h368l-970 -668l997 -680h-367l-823 561l-799 -561h-380z" />
    <glyph glyph-name="Y" unicode="Y" horiz-adv-x="2600" 
d="M1188 0v571l-1127 777h385l865 -600h4l864 600h361l-1127 -777v-571h-225z" />
    <glyph glyph-name="Z" unicode="Z" horiz-adv-x="2191" 
d="M150 0v131l1509 1026v2h-1489v189h1874v-140l-1497 -1018v-2h1476v-188h-1873z" />
    <glyph glyph-name="bracketleft" unicode="[" 
d="M207 403q-13 0 -19 -2v-200q4 -2 19 -2q37 0 50 25t13 77q0 54 -13 78t-50 24zM518 330v-49h-82v-78h96v-49h-155v297h155v-52h-96v-69h82zM203 150q-47 0 -74 4v292q61 9 76 9q67 0 96 -37.5t29 -116.5t-29.5 -115t-97.5 -36zM586 451h80l39 -164l38 164h82
q3 -45 13 -297h-60q0 108 -6 213l-41 -168h-55l-41 168h-2q-4 -140 -4 -213h-58q3 156 15 297zM987 150q-60 0 -84 35.5t-24 115.5q0 81 24 117.5t84 36.5t85.5 -37t25.5 -117q0 -79 -25.5 -115t-85.5 -36zM987 403q-29 0 -39 -23.5t-10 -78.5q0 -54 10 -78t39 -24
q30 0 40.5 24t10.5 78q0 55 -10 78.5t-41 23.5zM967 1016q49 0 79.5 -24.5t39 -51t8.5 -53.5q0 -43 -34.5 -72.5t-72.5 -34.5q-213 -23 -340 -147q3 8 9 22t25 53.5t39 75.5t50 80.5t59.5 76t66 53.5t71.5 22zM285 909q39 0 78 -21t69.5 -55t58.5 -74.5t48 -81.5t35 -75
t22 -55l8 -21q-117 148 -319 148q-49 0 -88 30t-39 76q0 53 33.5 91t93.5 38zM643 1214q38 -37 48.5 -102t-2.5 -131t-31.5 -126.5t-35.5 -98.5l-18 -39q20 191 -125 330q-35 35 -42 81.5t24 83.5q23 23 53 34t65 3.5t64 -35.5z" />
    <glyph glyph-name="backslash" unicode="\" 
d="M207 403q-13 0 -19 -2v-200q4 -2 19 -2q37 0 50 25t13 77q0 54 -13 78t-50 24zM518 330v-49h-82v-78h96v-49h-155v297h155v-52h-96v-69h82zM203 150q-47 0 -74 4v292q61 9 76 9q67 0 96 -37.5t29 -116.5t-29.5 -115t-97.5 -36zM586 451h80l39 -164l38 164h82
q3 -45 13 -297h-60q0 108 -6 213l-41 -168h-55l-41 168h-2q-4 -140 -4 -213h-58q3 156 15 297zM987 150q-60 0 -84 35.5t-24 115.5q0 81 24 117.5t84 36.5t85.5 -37t25.5 -117q0 -79 -25.5 -115t-85.5 -36zM987 403q-29 0 -39 -23.5t-10 -78.5q0 -54 10 -78t39 -24
q30 0 40.5 24t10.5 78q0 55 -10 78.5t-41 23.5zM967 1016q49 0 79.5 -24.5t39 -51t8.5 -53.5q0 -43 -34.5 -72.5t-72.5 -34.5q-213 -23 -340 -147q3 8 9 22t25 53.5t39 75.5t50 80.5t59.5 76t66 53.5t71.5 22zM285 909q39 0 78 -21t69.5 -55t58.5 -74.5t48 -81.5t35 -75
t22 -55l8 -21q-117 148 -319 148q-49 0 -88 30t-39 76q0 53 33.5 91t93.5 38zM643 1214q38 -37 48.5 -102t-2.5 -131t-31.5 -126.5t-35.5 -98.5l-18 -39q20 191 -125 330q-35 35 -42 81.5t24 83.5q23 23 53 34t65 3.5t64 -35.5z" />
    <glyph glyph-name="bracketright" unicode="]" 
d="M207 403q-13 0 -19 -2v-200q4 -2 19 -2q37 0 50 25t13 77q0 54 -13 78t-50 24zM518 330v-49h-82v-78h96v-49h-155v297h155v-52h-96v-69h82zM203 150q-47 0 -74 4v292q61 9 76 9q67 0 96 -37.5t29 -116.5t-29.5 -115t-97.5 -36zM586 451h80l39 -164l38 164h82
q3 -45 13 -297h-60q0 108 -6 213l-41 -168h-55l-41 168h-2q-4 -140 -4 -213h-58q3 156 15 297zM987 150q-60 0 -84 35.5t-24 115.5q0 81 24 117.5t84 36.5t85.5 -37t25.5 -117q0 -79 -25.5 -115t-85.5 -36zM987 403q-29 0 -39 -23.5t-10 -78.5q0 -54 10 -78t39 -24
q30 0 40.5 24t10.5 78q0 55 -10 78.5t-41 23.5zM967 1016q49 0 79.5 -24.5t39 -51t8.5 -53.5q0 -43 -34.5 -72.5t-72.5 -34.5q-213 -23 -340 -147q3 8 9 22t25 53.5t39 75.5t50 80.5t59.5 76t66 53.5t71.5 22zM285 909q39 0 78 -21t69.5 -55t58.5 -74.5t48 -81.5t35 -75
t22 -55l8 -21q-117 148 -319 148q-49 0 -88 30t-39 76q0 53 33.5 91t93.5 38zM643 1214q38 -37 48.5 -102t-2.5 -131t-31.5 -126.5t-35.5 -98.5l-18 -39q20 191 -125 330q-35 35 -42 81.5t24 83.5q23 23 53 34t65 3.5t64 -35.5z" />
    <glyph glyph-name="asciicircum" unicode="^" 
d="M207 403q-13 0 -19 -2v-200q4 -2 19 -2q37 0 50 25t13 77q0 54 -13 78t-50 24zM518 330v-49h-82v-78h96v-49h-155v297h155v-52h-96v-69h82zM203 150q-47 0 -74 4v292q61 9 76 9q67 0 96 -37.5t29 -116.5t-29.5 -115t-97.5 -36zM586 451h80l39 -164l38 164h82
q3 -45 13 -297h-60q0 108 -6 213l-41 -168h-55l-41 168h-2q-4 -140 -4 -213h-58q3 156 15 297zM987 150q-60 0 -84 35.5t-24 115.5q0 81 24 117.5t84 36.5t85.5 -37t25.5 -117q0 -79 -25.5 -115t-85.5 -36zM987 403q-29 0 -39 -23.5t-10 -78.5q0 -54 10 -78t39 -24
q30 0 40.5 24t10.5 78q0 55 -10 78.5t-41 23.5zM967 1016q49 0 79.5 -24.5t39 -51t8.5 -53.5q0 -43 -34.5 -72.5t-72.5 -34.5q-213 -23 -340 -147q3 8 9 22t25 53.5t39 75.5t50 80.5t59.5 76t66 53.5t71.5 22zM285 909q39 0 78 -21t69.5 -55t58.5 -74.5t48 -81.5t35 -75
t22 -55l8 -21q-117 148 -319 148q-49 0 -88 30t-39 76q0 53 33.5 91t93.5 38zM643 1214q38 -37 48.5 -102t-2.5 -131t-31.5 -126.5t-35.5 -98.5l-18 -39q20 191 -125 330q-35 35 -42 81.5t24 83.5q23 23 53 34t65 3.5t64 -35.5z" />
    <glyph glyph-name="underscore" unicode="_" 
d="M207 403q-13 0 -19 -2v-200q4 -2 19 -2q37 0 50 25t13 77q0 54 -13 78t-50 24zM518 330v-49h-82v-78h96v-49h-155v297h155v-52h-96v-69h82zM203 150q-47 0 -74 4v292q61 9 76 9q67 0 96 -37.5t29 -116.5t-29.5 -115t-97.5 -36zM586 451h80l39 -164l38 164h82
q3 -45 13 -297h-60q0 108 -6 213l-41 -168h-55l-41 168h-2q-4 -140 -4 -213h-58q3 156 15 297zM987 150q-60 0 -84 35.5t-24 115.5q0 81 24 117.5t84 36.5t85.5 -37t25.5 -117q0 -79 -25.5 -115t-85.5 -36zM987 403q-29 0 -39 -23.5t-10 -78.5q0 -54 10 -78t39 -24
q30 0 40.5 24t10.5 78q0 55 -10 78.5t-41 23.5zM967 1016q49 0 79.5 -24.5t39 -51t8.5 -53.5q0 -43 -34.5 -72.5t-72.5 -34.5q-213 -23 -340 -147q3 8 9 22t25 53.5t39 75.5t50 80.5t59.5 76t66 53.5t71.5 22zM285 909q39 0 78 -21t69.5 -55t58.5 -74.5t48 -81.5t35 -75
t22 -55l8 -21q-117 148 -319 148q-49 0 -88 30t-39 76q0 53 33.5 91t93.5 38zM643 1214q38 -37 48.5 -102t-2.5 -131t-31.5 -126.5t-35.5 -98.5l-18 -39q20 191 -125 330q-35 35 -42 81.5t24 83.5q23 23 53 34t65 3.5t64 -35.5z" />
    <glyph glyph-name="grave" unicode="`" 
d="M207 403q-13 0 -19 -2v-200q4 -2 19 -2q37 0 50 25t13 77q0 54 -13 78t-50 24zM518 330v-49h-82v-78h96v-49h-155v297h155v-52h-96v-69h82zM203 150q-47 0 -74 4v292q61 9 76 9q67 0 96 -37.5t29 -116.5t-29.5 -115t-97.5 -36zM586 451h80l39 -164l38 164h82
q3 -45 13 -297h-60q0 108 -6 213l-41 -168h-55l-41 168h-2q-4 -140 -4 -213h-58q3 156 15 297zM987 150q-60 0 -84 35.5t-24 115.5q0 81 24 117.5t84 36.5t85.5 -37t25.5 -117q0 -79 -25.5 -115t-85.5 -36zM987 403q-29 0 -39 -23.5t-10 -78.5q0 -54 10 -78t39 -24
q30 0 40.5 24t10.5 78q0 55 -10 78.5t-41 23.5zM967 1016q49 0 79.5 -24.5t39 -51t8.5 -53.5q0 -43 -34.5 -72.5t-72.5 -34.5q-213 -23 -340 -147q3 8 9 22t25 53.5t39 75.5t50 80.5t59.5 76t66 53.5t71.5 22zM285 909q39 0 78 -21t69.5 -55t58.5 -74.5t48 -81.5t35 -75
t22 -55l8 -21q-117 148 -319 148q-49 0 -88 30t-39 76q0 53 33.5 91t93.5 38zM643 1214q38 -37 48.5 -102t-2.5 -131t-31.5 -126.5t-35.5 -98.5l-18 -39q20 191 -125 330q-35 35 -42 81.5t24 83.5q23 23 53 34t65 3.5t64 -35.5z" />
    <glyph glyph-name="a" unicode="a" horiz-adv-x="2015" 
d="M848 -23q-190 0 -330.5 24.5t-222.5 69t-121 101t-39 125.5q0 51 16 91t43 68t69 48.5t86.5 32.5t104 19t113 9t121.5 2h983v27q0 63 -34 111t-109 85.5t-207 57.5t-317 20q-323 0 -472 -50t-149 -132q0 -13 2 -27h-199q-2 16 -2 37q0 155 211 247.5t611 92.5
q431 0 652.5 -124.5t221.5 -340.5v-571h-209q7 87 12 254h-4q-121 -277 -831 -277zM870 145q387 0 594 83.5t207 195.5v4h-969q-51 0 -76 -0.5t-68 -1.5t-65 -4.5t-53 -9t-46.5 -14.5t-32 -22t-23 -30.5t-6.5 -40.5q0 -160 538 -160z" />
    <glyph glyph-name="b" unicode="b" horiz-adv-x="2246" 
d="M1245 -25q-355 0 -563 77.5t-276 199.5h-3q4 -158 11 -252h-209v1434h209v-537l-2 -168h4q70 138 272 222.5t539 84.5q221 0 395 -39.5t283 -110t165 -163.5t56 -203q0 -244 -234 -394.5t-647 -150.5zM1208 152q348 0 528.5 99.5t180.5 268.5q0 54 -25 102.5t-80.5 92.5
t-136.5 76t-201 50.5t-266 18.5q-358 0 -576 -109t-218 -270v-16q0 -56 51 -110.5t146.5 -100t251 -74t345.5 -28.5z" />
    <glyph glyph-name="c" unicode="c" horiz-adv-x="2000" 
d="M1008 -25q-185 0 -336.5 31t-252 82t-169 120.5t-99 144t-30.5 153.5q0 109 58 204t169 168.5t286.5 115.5t395.5 42q175 0 318 -24t238.5 -65t160 -96t93 -115.5t28.5 -125.5h-197q-1 50 -37 93.5t-109.5 79.5t-199.5 56.5t-293 20.5q-339 0 -520.5 -99.5t-181.5 -254.5
q0 -71 37.5 -132.5t115.5 -112.5t213.5 -80t315.5 -29q176 0 308.5 20.5t208 55.5t112.5 77.5t38 91.5h197q0 -63 -28 -122t-94 -114t-163.5 -96t-247.5 -65.5t-335 -24.5z" />
    <glyph glyph-name="d" unicode="d" horiz-adv-x="2246" 
d="M1030 -25q-428 0 -668.5 146t-240.5 391q0 89 37.5 168t113 144t184 112.5t257.5 73.5t325 26q324 0 527 -71t266 -189h2v658h209v-1434h-209q4 55 10 289h-6q-64 -140 -275 -227t-532 -87zM1044 152q186 0 341.5 34t250 87t146 113.5t51.5 117.5v33q0 62 -49.5 119
t-143 103t-246.5 73.5t-343 27.5q-351 0 -536 -95.5t-185 -252.5q0 -165 188.5 -262.5t525.5 -97.5z" />
    <glyph glyph-name="e" unicode="e" horiz-adv-x="2023" 
d="M1903 530v-77h-1571q47 -310 719 -310q317 0 473.5 53.5t181.5 131.5h197q-8 -52 -41 -101t-100.5 -95.5t-162.5 -81t-236 -55t-312 -20.5q-212 0 -377.5 31t-267.5 81t-168 120t-91.5 141t-25.5 150q0 245 244 391.5t673 146.5q434 0 649.5 -134t215.5 -372zM1706 592v6
q0 125 -163.5 197.5t-498.5 72.5q-306 0 -481.5 -71t-218.5 -205h1362z" />
    <glyph glyph-name="f" unicode="f" horiz-adv-x="1611" 
d="M319 0v836h-294v176h294v86q0 193 190.5 293t520.5 100q119 0 233.5 -13t174.5 -28v-172q-176 37 -389 37q-189 0 -306.5 -28t-166 -78t-48.5 -126v-71h938v-176h-938v-836h-209z" />
    <glyph glyph-name="g" unicode="g" horiz-adv-x="2127" 
d="M1497 164q125 0 220.5 -15.5t153.5 -40t94 -59.5t49.5 -70t13.5 -75q0 -58 -27.5 -107.5t-95.5 -95t-173 -77.5t-269.5 -51t-375.5 -19q-989 0 -989 309q0 95 89.5 157.5t254.5 65.5v2q-75 64 -75 152q0 95 86 163q-256 92 -256 283q0 57 28 108t89 95.5t151 77t221.5 51
t292.5 18.5q324 0 524 -73l2 2q-49 39 -49 92q0 67 74 109t229 42q94 0 166 -14v-166q-66 16 -166 16q-168 0 -168 -75q0 -30 45 -72q125 -87 125 -211q0 -158 -197.5 -255t-584.5 -97q-227 0 -383 33q-18 -10 -35.5 -36t-17.5 -57q0 -49 51.5 -79.5t161.5 -30.5h741z
M397 686q0 -188 582 -188q290 0 436 51t146 137q0 85 -149 135.5t-433 50.5q-290 0 -436 -53t-146 -133zM1087 -283q208 0 352 10.5t226.5 32.5t118 51t35.5 70q0 61 -71 90t-251 29h-725q-138 0 -232 -9t-143.5 -27t-69.5 -39.5t-20 -51.5q0 -37 38 -64.5t125 -48.5
t241.5 -32t375.5 -11z" />
    <glyph glyph-name="h" unicode="h" horiz-adv-x="2260" 
d="M205 0v1434h209v-523q0 -164 -2 -221h6q84 178 296 263t554 85q223 0 384.5 -37.5t258 -111t141.5 -172.5t45 -230v-487h-209v440q0 105 -30 178t-104.5 129t-209.5 83.5t-336 27.5q-128 0 -242.5 -16.5t-216.5 -54.5t-175.5 -93.5t-116.5 -138.5t-43 -186v-369h-209z
" />
    <glyph glyph-name="i" unicode="i" horiz-adv-x="618" 
d="M203 1165v221h213v-221h-213zM205 0v1012h209v-1012h-209z" />
    <glyph glyph-name="j" unicode="j" horiz-adv-x="638" 
d="M223 1165v221h213v-221h-213zM-209 -426q-182 0 -319 27v172q170 -23 303 -23q95 0 168 12t121.5 36.5t81 55t49.5 74t23.5 86t6.5 97.5v901h209v-908q0 -530 -643 -530z" />
    <glyph glyph-name="k" unicode="k" horiz-adv-x="2238" 
d="M205 0v1434h209v-1006h2l1249 584h434l-1026 -469l1075 -543h-413l-871 446l-450 -206v-240h-209z" />
    <glyph glyph-name="l" unicode="l" horiz-adv-x="618" 
d="M205 0v1434h209v-1434h-209z" />
    <glyph glyph-name="m" unicode="m" horiz-adv-x="3223" 
d="M180 0v1012h209l-2 -326h2q43 171 207.5 261.5t447.5 90.5q142 0 253 -24.5t189 -71.5t129 -110t81 -146h2q69 169 230.5 260.5t451.5 91.5q338 0 509 -143.5t171 -417.5v-477h-209v444q0 414 -516 414q-296 0 -453.5 -127.5t-157.5 -365.5v-365h-208v444q0 414 -517 414
q-297 0 -453.5 -127t-156.5 -364v-367h-209z" />
    <glyph glyph-name="n" unicode="n" horiz-adv-x="2236" 
d="M180 0v1012h209l-2 -322h6q84 178 296 263t554 85q223 0 384.5 -37.5t258.5 -111t142 -172.5t45 -230v-487h-209v440q0 105 -30 178t-104.5 129t-209.5 83.5t-336 27.5q-128 0 -242.5 -16.5t-216.5 -54.5t-176 -93.5t-117 -138.5t-43 -186v-369h-209z" />
    <glyph glyph-name="o" unicode="o" horiz-adv-x="2134" 
d="M1067 -25q-198 0 -359.5 29.5t-269 80t-180.5 119t-105 143.5t-32 157q0 67 23.5 131t71 124t125.5 110t180 87.5t242 58.5t304 21t304 -21t242 -58.5t180 -87.5t125.5 -110t71 -124t23.5 -131q0 -82 -32 -157t-105 -143.5t-180.5 -119t-269 -80t-359.5 -29.5zM1067 152
q157 0 283 19.5t209.5 52t139.5 78t80.5 96t24.5 106.5t-24.5 107t-80.5 97t-140 79.5t-210 53t-282 19.5t-282 -19.5t-210 -53t-140 -79.5t-80.5 -97t-24.5 -107t24.5 -106t80.5 -95.5t139.5 -78.5t209.5 -52.5t283 -19.5z" />
    <glyph glyph-name="p" unicode="p" horiz-adv-x="2246" 
d="M205 -406v1418h209l-2 -285h2q73 148 278 228.5t529 80.5q428 0 666.5 -143t238.5 -375q0 -170 -109.5 -293t-310 -186.5t-471.5 -63.5q-653 0 -825 265h-4q8 -136 8 -236v-410h-209zM1208 152q340 0 525.5 93t185.5 271q0 151 -187.5 247.5t-529.5 96.5
q-362 0 -571 -106.5t-217 -264.5v-26q0 -56 51 -110t146.5 -99.5t251 -73.5t345.5 -28z" />
    <glyph glyph-name="q" unicode="q" horiz-adv-x="2246" 
d="M1833 -406v680h-4q-58 -129 -274 -214t-539 -85q-416 0 -655.5 143.5t-239.5 383.5q0 114 60 210.5t173.5 169t289 113.5t394.5 41q325 0 527.5 -71t265.5 -189h2v236h209v-1418h-209zM1040 152q187 0 343 34t251.5 87.5t147 115t51.5 121.5v27q0 62 -49.5 119t-143 103
t-246.5 73.5t-343 27.5q-350 0 -535.5 -99t-185.5 -259q0 -166 187.5 -258t522.5 -92z" />
    <glyph glyph-name="r" unicode="r" horiz-adv-x="1929" 
d="M180 0v1012h209l-2 -350h6q59 176 248.5 275t478.5 99q680 0 680 -508q0 -70 -10 -143h-195q9 74 9 115q0 84 -27 147.5t-87 111.5t-162 72.5t-245 24.5q-313 0 -503.5 -148t-190.5 -372v-336h-209z" />
    <glyph glyph-name="s" unicode="s" horiz-adv-x="1943" 
d="M946 -27q-147 0 -268.5 12.5t-205 33t-147.5 50.5t-101.5 61t-61 68.5t-31.5 70t-8 67.5h201q1 -26 9.5 -47t30.5 -45t67 -42t110.5 -33.5t169 -23.5t235.5 -8q193 0 327.5 13t206 37.5t102 54t30.5 67.5q0 74 -109 92q-40 7 -113 11.5t-136 6t-171 4t-161 3.5
q-490 13 -641 66q-158 54 -158 192q0 161 220.5 257.5t602.5 96.5q191 0 335.5 -21t230.5 -54.5t139.5 -83t72.5 -99.5t19 -110h-201q0 47 -23.5 81t-84.5 63.5t-182 44.5t-302 15q-292 0 -455 -45t-163 -124q0 -73 121 -97q88 -17 579 -28q464 -10 615 -52
q174 -47 174 -202q0 -55 -23 -102.5t-83.5 -95t-156.5 -81t-252.5 -54t-359.5 -20.5z" />
    <glyph glyph-name="t" unicode="t" horiz-adv-x="1634" 
d="M1087 -10q-209 0 -359.5 30t-238 87t-127.5 132t-40 173v424h-295v176h241q35 0 50 16t18 55l10 158h184v-229h957v-176h-957v-390q0 -56 11.5 -95t46 -76.5t95 -59.5t161.5 -35.5t243 -13.5q233 0 398 20v-172q-132 -24 -398 -24z" />
    <glyph glyph-name="u" unicode="u" horiz-adv-x="2207" 
d="M969 -27q-416 0 -616.5 144t-200.5 401v494h208v-453q0 -215 151.5 -310t502.5 -95q169 0 316.5 31t261 89.5t178.5 151.5t65 209v377h209v-1012h-209q8 156 8 346h-4q-62 -186 -288.5 -279.5t-581.5 -93.5z" />
    <glyph glyph-name="v" unicode="v" horiz-adv-x="2213" 
d="M991 0l-930 1012h287l768 -844h4l762 844h270l-925 -1012h-236z" />
    <glyph glyph-name="w" unicode="w" horiz-adv-x="2877" 
d="M678 0l-617 1012h246l494 -819h4l534 819h220l532 -819h4l490 819h231l-616 -1012h-224l-536 813h-4l-535 -813h-223z" />
    <glyph glyph-name="x" unicode="x" horiz-adv-x="1986" 
d="M63 0l758 512l-731 500h348l574 -391l559 391h325l-733 -494l760 -518h-348l-598 408l-571 -408h-343z" />
    <glyph glyph-name="y" unicode="y" horiz-adv-x="2050" 
d="M518 -446q-128 0 -233 28v176q120 -28 241 -28q129 0 222 55t215 215h-25l-877 1012h279l735 -860h4l662 860h248l-803 -1032q-94 -122 -160 -193.5t-145.5 -129t-165 -80.5t-197.5 -23z" />
    <glyph glyph-name="z" unicode="z" horiz-adv-x="1757" 
d="M139 0v145l1112 689v2h-1091v176h1458v-144l-1114 -690v-2h1114v-176h-1479z" />
    <glyph glyph-name="braceleft" unicode="{" 
d="M207 403q-13 0 -19 -2v-200q4 -2 19 -2q37 0 50 25t13 77q0 54 -13 78t-50 24zM518 330v-49h-82v-78h96v-49h-155v297h155v-52h-96v-69h82zM203 150q-47 0 -74 4v292q61 9 76 9q67 0 96 -37.5t29 -116.5t-29.5 -115t-97.5 -36zM586 451h80l39 -164l38 164h82
q3 -45 13 -297h-60q0 108 -6 213l-41 -168h-55l-41 168h-2q-4 -140 -4 -213h-58q3 156 15 297zM987 150q-60 0 -84 35.5t-24 115.5q0 81 24 117.5t84 36.5t85.5 -37t25.5 -117q0 -79 -25.5 -115t-85.5 -36zM987 403q-29 0 -39 -23.5t-10 -78.5q0 -54 10 -78t39 -24
q30 0 40.5 24t10.5 78q0 55 -10 78.5t-41 23.5zM967 1016q49 0 79.5 -24.5t39 -51t8.5 -53.5q0 -43 -34.5 -72.5t-72.5 -34.5q-213 -23 -340 -147q3 8 9 22t25 53.5t39 75.5t50 80.5t59.5 76t66 53.5t71.5 22zM285 909q39 0 78 -21t69.5 -55t58.5 -74.5t48 -81.5t35 -75
t22 -55l8 -21q-117 148 -319 148q-49 0 -88 30t-39 76q0 53 33.5 91t93.5 38zM643 1214q38 -37 48.5 -102t-2.5 -131t-31.5 -126.5t-35.5 -98.5l-18 -39q20 191 -125 330q-35 35 -42 81.5t24 83.5q23 23 53 34t65 3.5t64 -35.5z" />
    <glyph glyph-name="bar" unicode="|" 
d="M207 403q-13 0 -19 -2v-200q4 -2 19 -2q37 0 50 25t13 77q0 54 -13 78t-50 24zM518 330v-49h-82v-78h96v-49h-155v297h155v-52h-96v-69h82zM203 150q-47 0 -74 4v292q61 9 76 9q67 0 96 -37.5t29 -116.5t-29.5 -115t-97.5 -36zM586 451h80l39 -164l38 164h82
q3 -45 13 -297h-60q0 108 -6 213l-41 -168h-55l-41 168h-2q-4 -140 -4 -213h-58q3 156 15 297zM987 150q-60 0 -84 35.5t-24 115.5q0 81 24 117.5t84 36.5t85.5 -37t25.5 -117q0 -79 -25.5 -115t-85.5 -36zM987 403q-29 0 -39 -23.5t-10 -78.5q0 -54 10 -78t39 -24
q30 0 40.5 24t10.5 78q0 55 -10 78.5t-41 23.5zM967 1016q49 0 79.5 -24.5t39 -51t8.5 -53.5q0 -43 -34.5 -72.5t-72.5 -34.5q-213 -23 -340 -147q3 8 9 22t25 53.5t39 75.5t50 80.5t59.5 76t66 53.5t71.5 22zM285 909q39 0 78 -21t69.5 -55t58.5 -74.5t48 -81.5t35 -75
t22 -55l8 -21q-117 148 -319 148q-49 0 -88 30t-39 76q0 53 33.5 91t93.5 38zM643 1214q38 -37 48.5 -102t-2.5 -131t-31.5 -126.5t-35.5 -98.5l-18 -39q20 191 -125 330q-35 35 -42 81.5t24 83.5q23 23 53 34t65 3.5t64 -35.5z" />
    <glyph glyph-name="braceright" unicode="}" 
d="M207 403q-13 0 -19 -2v-200q4 -2 19 -2q37 0 50 25t13 77q0 54 -13 78t-50 24zM518 330v-49h-82v-78h96v-49h-155v297h155v-52h-96v-69h82zM203 150q-47 0 -74 4v292q61 9 76 9q67 0 96 -37.5t29 -116.5t-29.5 -115t-97.5 -36zM586 451h80l39 -164l38 164h82
q3 -45 13 -297h-60q0 108 -6 213l-41 -168h-55l-41 168h-2q-4 -140 -4 -213h-58q3 156 15 297zM987 150q-60 0 -84 35.5t-24 115.5q0 81 24 117.5t84 36.5t85.5 -37t25.5 -117q0 -79 -25.5 -115t-85.5 -36zM987 403q-29 0 -39 -23.5t-10 -78.5q0 -54 10 -78t39 -24
q30 0 40.5 24t10.5 78q0 55 -10 78.5t-41 23.5zM967 1016q49 0 79.5 -24.5t39 -51t8.5 -53.5q0 -43 -34.5 -72.5t-72.5 -34.5q-213 -23 -340 -147q3 8 9 22t25 53.5t39 75.5t50 80.5t59.5 76t66 53.5t71.5 22zM285 909q39 0 78 -21t69.5 -55t58.5 -74.5t48 -81.5t35 -75
t22 -55l8 -21q-117 148 -319 148q-49 0 -88 30t-39 76q0 53 33.5 91t93.5 38zM643 1214q38 -37 48.5 -102t-2.5 -131t-31.5 -126.5t-35.5 -98.5l-18 -39q20 191 -125 330q-35 35 -42 81.5t24 83.5q23 23 53 34t65 3.5t64 -35.5z" />
    <glyph glyph-name="asciitilde" unicode="~" 
d="M207 403q-13 0 -19 -2v-200q4 -2 19 -2q37 0 50 25t13 77q0 54 -13 78t-50 24zM518 330v-49h-82v-78h96v-49h-155v297h155v-52h-96v-69h82zM203 150q-47 0 -74 4v292q61 9 76 9q67 0 96 -37.5t29 -116.5t-29.5 -115t-97.5 -36zM586 451h80l39 -164l38 164h82
q3 -45 13 -297h-60q0 108 -6 213l-41 -168h-55l-41 168h-2q-4 -140 -4 -213h-58q3 156 15 297zM987 150q-60 0 -84 35.5t-24 115.5q0 81 24 117.5t84 36.5t85.5 -37t25.5 -117q0 -79 -25.5 -115t-85.5 -36zM987 403q-29 0 -39 -23.5t-10 -78.5q0 -54 10 -78t39 -24
q30 0 40.5 24t10.5 78q0 55 -10 78.5t-41 23.5zM967 1016q49 0 79.5 -24.5t39 -51t8.5 -53.5q0 -43 -34.5 -72.5t-72.5 -34.5q-213 -23 -340 -147q3 8 9 22t25 53.5t39 75.5t50 80.5t59.5 76t66 53.5t71.5 22zM285 909q39 0 78 -21t69.5 -55t58.5 -74.5t48 -81.5t35 -75
t22 -55l8 -21q-117 148 -319 148q-49 0 -88 30t-39 76q0 53 33.5 91t93.5 38zM643 1214q38 -37 48.5 -102t-2.5 -131t-31.5 -126.5t-35.5 -98.5l-18 -39q20 191 -125 330q-35 35 -42 81.5t24 83.5q23 23 53 34t65 3.5t64 -35.5z" />
    </font>
</defs>
</svg>
