<svg id="Discussion_Box_Logo" data-name="Discussion Box Logo" xmlns="http://www.w3.org/2000/svg" width="241.494" height="23.946" viewBox="0 0 241.494 23.946">
  <path id="Path_1510" data-name="Path 1510" d="M345.95,457.207c0-4.8,3-8.229,7.9-8.229,3.363,0,5.421,1.371,6.008,3.494h.033v-9.73h2.612V465.37h-2.612c.1-1.437.131-2.873.163-4.31h-.065c-.62,2.775-2.776,4.571-6.368,4.571C348.954,465.631,345.95,462.235,345.95,457.207Zm13.943.294v-.817c0-3.265-2.253-5.355-5.813-5.355-3.363,0-5.519,2.514-5.519,5.878,0,3.592,2.155,6.074,5.486,6.074C357.607,463.28,359.893,461.027,359.893,457.5Z" transform="translate(-345.95 -442.741)" fill="#fff"/>
  <path id="Path_1511" data-name="Path 1511" d="M423.055,446.828h2.808v3.3h-2.808Zm.1,5.355h2.612v16.131h-2.612Z" transform="translate(-401.5 -445.686)" fill="#fff"/>
  <path id="Path_1512" data-name="Path 1512" d="M448.414,476.056h2.416c0,2.155,1.306,3.428,4.67,3.428,3.331,0,4.931-1.012,4.931-2.743a1.668,1.668,0,0,0-1.013-1.666,17.739,17.739,0,0,0-4.441-.751c-2.645-.229-4.245-.555-5.225-1.273a3.731,3.731,0,0,1-1.339-3c0-3.037,2.775-5,7.086-5,4.833,0,6.857,2.123,6.857,5.747h-2.416c-.032-2.416-1.469-3.527-4.343-3.527-2.776,0-4.572,1.012-4.572,2.612a1.723,1.723,0,0,0,1.045,1.829,21.021,21.021,0,0,0,4.506.751c2.514.261,3.755.49,4.865,1.111a3.484,3.484,0,0,1,1.6,3.069c0,3.168-2.612,5.061-7.51,5.061C450.112,481.7,448.414,479.158,448.414,476.056Z" transform="translate(-419.77 -458.814)" fill="#fff"/>
  <path id="Path_1513" data-name="Path 1513" d="M511.751,473.031c0-5.094,3.069-8.327,7.9-8.327,4.31,0,7.086,2.612,7.086,6.727h-2.416c-.032-2.678-1.829-4.376-4.637-4.376-3.233,0-5.323,2.318-5.323,5.976s2.025,5.976,5.159,5.976c2.939,0,4.833-1.666,4.865-4.31H526.8c0,4.049-2.873,6.661-7.347,6.661C514.755,481.358,511.751,478.125,511.751,473.031Z" transform="translate(-465.402 -458.564)" fill="#fff"/>
  <path id="Path_1514" data-name="Path 1514" d="M578.943,475.945v-9.96h2.613v9.5c0,2.776,1.829,4.539,4.9,4.539,3.755,0,6.172-2.514,6.172-6.759v-7.282h2.612v16.131h-2.612c.065-1.077.13-3.1.13-4.735h-.033c-.686,3.037-2.971,5-6.988,5C581.523,482.377,578.943,479.863,578.943,475.945Z" transform="translate(-513.81 -459.487)" fill="#fff"/>
  <path id="Path_1515" data-name="Path 1515" d="M649.439,476.056h2.416c0,2.155,1.306,3.428,4.669,3.428,3.331,0,4.931-1.012,4.931-2.743a1.668,1.668,0,0,0-1.012-1.666,17.744,17.744,0,0,0-4.441-.751c-2.645-.229-4.245-.555-5.225-1.273a3.73,3.73,0,0,1-1.339-3c0-3.037,2.776-5,7.086-5,4.833,0,6.857,2.123,6.857,5.747h-2.416c-.033-2.416-1.469-3.527-4.343-3.527-2.775,0-4.572,1.012-4.572,2.612a1.722,1.722,0,0,0,1.045,1.829,21.025,21.025,0,0,0,4.506.751c2.514.261,3.755.49,4.865,1.111a3.484,3.484,0,0,1,1.6,3.069c0,3.168-2.612,5.061-7.51,5.061C651.137,481.7,649.439,479.158,649.439,476.056Z" transform="translate(-564.599 -458.814)" fill="#fff"/>
  <path id="Path_1516" data-name="Path 1516" d="M712.548,476.056h2.417c0,2.155,1.306,3.428,4.669,3.428,3.331,0,4.931-1.012,4.931-2.743a1.669,1.669,0,0,0-1.012-1.666,17.749,17.749,0,0,0-4.441-.751c-2.645-.229-4.245-.555-5.224-1.273a3.73,3.73,0,0,1-1.339-3c0-3.037,2.776-5,7.086-5,4.833,0,6.857,2.123,6.857,5.747h-2.416c-.033-2.416-1.47-3.527-4.343-3.527-2.776,0-4.572,1.012-4.572,2.612a1.723,1.723,0,0,0,1.045,1.829,21.026,21.026,0,0,0,4.506.751c2.515.261,3.755.49,4.865,1.111a3.484,3.484,0,0,1,1.6,3.069c0,3.168-2.612,5.061-7.51,5.061C714.246,481.7,712.548,479.158,712.548,476.056Z" transform="translate(-610.066 -458.814)" fill="#fff"/>
  <path id="Path_1517" data-name="Path 1517" d="M780.275,446.828h2.808v3.3h-2.808Zm.1,5.355h2.612v16.131h-2.612Z" transform="translate(-658.86 -445.686)" fill="#fff"/>
  <path id="Path_1518" data-name="Path 1518" d="M876.946,465.312h2.612l-.065,4.343h.033c.881-2.809,3.135-4.6,6.988-4.6,4.245,0,6.76,2.449,6.76,6.3v10.09h-2.612v-9.535c0-2.743-1.568-4.506-5.029-4.506-3.69,0-6.074,2.253-6.074,6.106v7.935h-2.612Z" transform="translate(-728.507 -458.814)" fill="#fff"/>
  <path id="Path_1519" data-name="Path 1519" d="M1025.27,461.647h-.033c0,1.274.066,2.874.131,3.723h-2.612V442.741h2.612v7.739c0,.653-.032,1.959-.065,2.743h.033c.718-2.58,3.069-4.245,6.531-4.245,4.637,0,7.478,3.135,7.478,8.033,0,5.257-2.906,8.621-7.413,8.621C1028.275,465.631,1025.956,464.064,1025.27,461.647Zm11.462-4.571c0-3.494-2.025-5.747-5.355-5.747a5.623,5.623,0,0,0-6.008,6.008v.849c0,3.1,2.318,5.094,5.91,5.094C1034.609,463.28,1036.732,460.864,1036.732,457.076Z" transform="translate(-833.556 -442.741)" fill="#fff"/>
  <path id="Path_1520" data-name="Path 1520" d="M1157.286,473.855l-6.073-7.87h3.364l4.767,6.335,4.669-6.335h3.1l-6.106,7.9,6.4,8.229h-3.364l-5.028-6.629-4.866,6.629h-3.2Z" transform="translate(-925.915 -459.487)" fill="#fff"/>
  <path id="Path_1521" data-name="Path 1521" d="M1093.688,477.423l.2.072,13.079-6.122.072-.2-6.123-13.079-.2-.072-13.079,6.122-.072.2Z" transform="translate(-880.249 -453.549)" fill="#fff"/>
  <path id="Path_1522" data-name="Path 1522" d="M805.02,479.257l.177.125,14.545-2.485.125-.177-2.484-14.545-.177-.125-14.545,2.485-.125.177Z" transform="translate(-674.898 -456.652)" fill="#fff"/>
</svg>
