<svg xmlns="http://www.w3.org/2000/svg" width="17.568" height="17.568" viewBox="0 0 17.568 17.568">
  <g id="linkedin" transform="translate(0 0)">
    <path id="Path_1650" data-name="Path 1650" d="M19.839,19.6h0V13.154c0-3.152-.679-5.58-4.363-5.58a3.825,3.825,0,0,0-3.445,1.894h-.051v-1.6H8.489V19.6h3.638V13.789c0-1.529.29-3.008,2.184-3.008,1.866,0,1.894,1.745,1.894,3.106V19.6Z" transform="translate(-2.275 -2.03)"/>
    <path id="Path_1651" data-name="Path 1651" d="M.4,7.977H4.038V19.706H.4Z" transform="translate(-0.106 -2.138)"/>
    <path id="Path_1652" data-name="Path 1652" d="M2.11,0a2.12,2.12,0,1,0,2.11,2.11A2.11,2.11,0,0,0,2.11,0Z" transform="translate(0 0)"/>
  </g>
</svg>
