<svg xmlns="http://www.w3.org/2000/svg" width="21.62" height="17.566" viewBox="0 0 21.62 17.566">
  <path id="twitter" d="M21.62,50.08a9.24,9.24,0,0,1-2.554.7,4.407,4.407,0,0,0,1.95-2.45A8.857,8.857,0,0,1,18.205,49.4a4.432,4.432,0,0,0-7.667,3.031,4.564,4.564,0,0,0,.1,1.011,12.546,12.546,0,0,1-9.136-4.636,4.433,4.433,0,0,0,1.362,5.924,4.377,4.377,0,0,1-2-.546v.049A4.453,4.453,0,0,0,4.416,58.59a4.423,4.423,0,0,1-1.162.146,3.919,3.919,0,0,1-.839-.076,4.474,4.474,0,0,0,4.142,3.088,8.906,8.906,0,0,1-5.5,1.89A8.3,8.3,0,0,1,0,63.577a12.478,12.478,0,0,0,6.8,1.989A12.528,12.528,0,0,0,19.415,52.954c0-.2-.007-.385-.016-.573A8.842,8.842,0,0,0,21.62,50.08Z" transform="translate(0 -48)"/>
</svg>
